<svg xmlns="http://www.w3.org/2000/svg" viewBox="0 0 412.49 116.15"><defs><style>.cls-1{fill:#221c41;}.cls-2{fill:#f08590;}.cls-3{fill:#f8b88a;}</style></defs><title>logo</title><g><g><path class="cls-1" d="M38.12,80.13H17.31L12.19,92.41H0L28.31,27.18H29L57.3,92.41H43ZM34,69.73,28,54.47,21.66,69.73Z"/><path class="cls-1" d="M100.7,35.33Q107,41,107,50.8a25.64,25.64,0,0,1-2.17,10.53,18.32,18.32,0,0,1-7.08,8.06q-4.91,3.15-12.66,3.16H76.23V92.41H63.87V29.66h19Q94.4,29.66,100.7,35.33ZM90.64,59a9.3,9.3,0,0,0,3.07-3.71,10.26,10.26,0,0,0,.94-4.1,12,12,0,0,0-2-6.43q-2-3.12-7.59-3.12H76.23V60.52H85A9.25,9.25,0,0,0,90.64,59Z"/><path class="cls-1" d="M149.39,92.41l-13.22-20H127.9v20H115.54V29.66h19q11.69,0,18.12,5.67t6.44,15.47a24.82,24.82,0,0,1-2.43,10.87,18.07,18.07,0,0,1-7.46,8L163.8,92.41ZM127.9,60.52h8.78c3.35,0,5.8-1,7.33-2.94a10.08,10.08,0,0,0,2.31-6.35,12.1,12.1,0,0,0-2-6.52q-2-3.12-7.59-3.12H127.9Z"/><path class="cls-1" d="M183.83,29.66V92.41H171.47V29.66Z"/><path class="cls-1" d="M237,91.13a31.87,31.87,0,0,1-11.35,2,33,33,0,0,1-17.05-4.26,28.74,28.74,0,0,1-11.08-11.47,33.07,33.07,0,0,1-3.84-15.81,36.23,36.23,0,0,1,3.84-16.89,28.26,28.26,0,0,1,10.74-11.55A30.41,30.41,0,0,1,224.17,29a35.07,35.07,0,0,1,10.57,1.54,36.35,36.35,0,0,1,8.52,3.84L238.4,46q-6.74-5.12-13.81-5.12a16.38,16.38,0,0,0-9,2.65,19.09,19.09,0,0,0-6.65,7.2,20.83,20.83,0,0,0-2.47,10.1,23.2,23.2,0,0,0,2.3,10.62,17.1,17.1,0,0,0,6.56,7.12,19.07,19.07,0,0,0,10,2.56,21.84,21.84,0,0,0,8.27-1.49,18.41,18.41,0,0,0,5.8-3.54l5.11,11.08A27.55,27.55,0,0,1,237,91.13Z"/><path class="cls-1" d="M412.49,29.66V41.59H397.22V92.41H384.86V41.59H370.19V29.66Z"/><path class="cls-2" d="M308.48,48.49h.25a57.29,57.29,0,0,1,52,33.5,57.93,57.93,0,0,0,3.38-9.67c-11-20.75-29.73-31.33-55.6-31.44h-.38c-30.54,0-47.19,15.71-56.27,32.88a57.26,57.26,0,0,0,3.67,9.66,57.63,57.63,0,0,1,52.91-34.93Z"/><path class="cls-3" d="M308.71,53.2h-.23a52.89,52.89,0,0,0-49.92,35.63,58.1,58.1,0,0,0,99.38-1.37A52.61,52.61,0,0,0,308.71,53.2Z"/><path class="cls-1" d="M260.82,53.88c12.12-11.75,28.06-17.71,47.35-17.71h.4c30.83.13,47.74,14.77,56.9,29.07a58.08,58.08,0,1,0-115.71-7.41,57.69,57.69,0,0,0,.66,9.06A67.92,67.92,0,0,1,260.82,53.88Z"/></g></g></svg>
